# xmcd CD database file
#
# Track frame offsets:
#	182
#	13137
#	26440
#	41017
#	53950
#	68390
#	81122
#	96167
#	108717
#	121760
#	135935
#	148670
#
# Disc length: 2175 seconds
#
# Revision: 0
# Processed by: cddbd v1.5.2PL0 Copyright (c) Steve Scherf et al.
# Submitted via: CDex 1.88
#
DISCID=99087d0c
DTITLE=Slim Gaillard - Trio - Quartet - Orchestra - Los Angeles 1945
DYEAR=1945
DGENRE=Jazz
TTITLE0=Carne
TTITLE1=Sighing Boogie
TTITLE2=Ya-Ha-Ha
TTITLE3=Ding Dong Oreeney
TTITLE4=Buck Dance Rhythm
TTITLE5=The Hop
TTITLE6=Baby Won't You Please Come Home
TTITLE7=Harlem Hunch
TTITLE8=Slim Gaillard's Boogie
TTITLE9=Voot Greene
TTITLE10=Central Avenue Boogie
TTITLE11=Travelin' Blues
EXTD=YEAR: 1945
EXTT0=
EXTT1=
EXTT2=
EXTT3=
EXTT4=
EXTT5=
EXTT6=
EXTT7=
EXTT8=
EXTT9=
EXTT10=
EXTT11=
PLAYORDER=
